# xmcd
#
# Track frame offsets:
#	150
#	19112
#	37965
#	52672
#	68880
#	86314
#	99691
#	109359
#	124131
#	143814
#	156319
#
# Disc length: 2296 seconds
#
# Revision: 5
# Processed by: cddbd v1.5.1PL0 Copyright (c) Steve Scherf et al.
# Submitted via: EasyCDDAExtractor 7.1.0.1
#
DISCID=8c08f60b
DTITLE=Ray Charles - American Soul
DYEAR=2004
DGENRE=Blues
TTITLE0=I Can't Stop Loving You
TTITLE1=Over The Rainbow
TTITLE2=You Don't Know Me
TTITLE3=Georgia On My Mind
TTITLE4=What'd I Say
TTITLE5=Cryin' Time
TTITLE6=Busted
TTITLE7=Here We Go Again
TTITLE8=That Old Lucky Sun
TTITLE9=Unchain My Heart
TTITLE10=Your Cheatin' Heart
EXTD=
EXTT0=
EXTT1=
EXTT2=
EXTT3=
EXTT4=
EXTT5=
EXTT6=
EXTT7=
EXTT8=
EXTT9=
EXTT10=
PLAYORDER=
